<?xml version="1.0" encoding="UTF-8" standalone="no"?>
<!DOCTYPE svg PUBLIC "-//W3C//DTD SVG 1.1//EN" "http://www.w3.org/Graphics/SVG/1.1/DTD/svg11.dtd">
<svg width="100%" height="100%" viewBox="0 0 2550 293" version="1.1" xmlns="http://www.w3.org/2000/svg" xmlns:xlink="http://www.w3.org/1999/xlink" xml:space="preserve" xmlns:serif="http://www.serif.com/" style="fill-rule:evenodd;clip-rule:evenodd;stroke-linejoin:round;stroke-miterlimit:2;">
    <g transform="matrix(1,0,0,1,-694.605,-838.598)">
        <path d="M817.457,940.552L870.777,842.505L938.16,842.505L855.347,983.52L940.308,1126.88L872.144,1126.88L817.457,1027.27L762.769,1126.88L694.605,1126.88L779.566,983.52L696.753,842.505L764.136,842.505L817.457,940.552Z" style="fill:rgb(0,171,255);fill-rule:nonzero;"/>
        <path d="M1183.86,889.966L1096.75,889.966L1096.75,1126.88L1038.16,1126.88L1038.16,889.966L952.222,889.966L952.222,842.505L1183.86,842.505L1183.86,889.966Z" style="fill:rgb(0,171,255);fill-rule:nonzero;"/>
        <path d="M1322.54,1022.78L1275.86,1022.78L1275.86,1126.88L1217.26,1126.88L1217.26,842.505L1322.92,842.505C1356.52,842.505 1382.43,849.992 1400.66,864.966C1418.89,879.94 1428,901.098 1428,928.442C1428,947.843 1423.8,964.022 1415.41,976.977C1407.01,989.933 1394.28,1000.25 1377.22,1007.93L1438.75,1124.14L1438.75,1126.88L1375.86,1126.88L1322.54,1022.78ZM1275.86,975.317L1323.12,975.317C1337.83,975.317 1349.23,971.574 1357.3,964.087C1365.37,956.6 1369.41,946.281 1369.41,933.13C1369.41,919.718 1365.6,909.171 1357.98,901.489C1350.37,893.807 1338.68,889.966 1322.92,889.966L1275.86,889.966L1275.86,975.317Z" style="fill:rgb(0,171,255);fill-rule:nonzero;"/>
        <path d="M1633.08,1068.29L1530.35,1068.29L1510.82,1126.88L1448.51,1126.88L1554.37,842.505L1608.67,842.505L1715.11,1126.88L1652.81,1126.88L1633.08,1068.29ZM1546.17,1020.83L1617.26,1020.83L1581.52,914.38L1546.17,1020.83Z" style="fill:rgb(0,171,255);fill-rule:nonzero;"/>
        <path d="M1932.3,889.966L1845.19,889.966L1845.19,1126.88L1786.6,1126.88L1786.6,889.966L1700.66,889.966L1700.66,842.505L1932.3,842.505L1932.3,889.966Z" style="fill:rgb(0,171,255);fill-rule:nonzero;"/>
        <path d="M2193.82,991.137C2193.82,1019.13 2188.88,1043.68 2178.98,1064.77C2169.08,1085.86 2154.92,1102.14 2136.5,1113.6C2118.07,1125.06 2096.95,1130.79 2073.12,1130.79C2049.55,1130.79 2028.52,1125.12 2010.04,1113.79C1991.55,1102.47 1977.22,1086.29 1967.07,1065.26C1956.91,1044.23 1951.77,1020.04 1951.64,992.7L1951.64,978.637C1951.64,950.643 1956.68,926.001 1966.77,904.712C1976.86,883.423 1991.12,867.081 2009.55,855.688C2027.97,844.295 2049.03,838.598 2072.73,838.598C2096.43,838.598 2117.49,844.295 2135.91,855.688C2154.34,867.081 2168.6,883.423 2178.69,904.712C2188.78,926.001 2193.82,950.578 2193.82,978.442L2193.82,991.137ZM2134.45,978.247C2134.45,948.429 2129.11,925.773 2118.43,910.278C2107.76,894.783 2092.52,887.036 2072.73,887.036C2053.07,887.036 2037.9,894.686 2027.22,909.985C2016.55,925.285 2011.14,947.713 2011.01,977.27L2011.01,991.137C2011.01,1020.17 2016.35,1042.7 2027.03,1058.72C2037.7,1074.73 2053.07,1082.74 2073.12,1082.74C2092.78,1082.74 2107.89,1075.02 2118.43,1059.6C2128.98,1044.16 2134.32,1021.67 2134.45,992.114L2134.45,978.247Z" style="fill:rgb(0,171,255);fill-rule:nonzero;"/>
        <path d="M2383.86,1052.27C2383.86,1041.2 2379.96,1032.71 2372.14,1026.78C2364.33,1020.86 2350.27,1014.61 2329.96,1008.03C2309.64,1001.46 2293.56,994.979 2281.71,988.598C2249.42,971.15 2233.28,947.648 2233.28,918.091C2233.28,902.726 2237.61,889.022 2246.26,876.977C2254.92,864.933 2267.36,855.525 2283.57,848.755C2299.78,841.984 2317.98,838.598 2338.16,838.598C2358.47,838.598 2376.57,842.277 2392.46,849.634C2408.34,856.99 2420.68,867.374 2429.47,880.786C2438.26,894.197 2442.65,909.432 2442.65,926.489L2384.06,926.489C2384.06,913.468 2379.96,903.345 2371.75,896.118C2363.55,888.891 2352.03,885.278 2337.18,885.278C2322.86,885.278 2311.73,888.305 2303.78,894.36C2295.84,900.415 2291.87,908.39 2291.87,918.286C2291.87,927.531 2296.53,935.278 2305.84,941.528C2315.14,947.778 2328.85,953.637 2346.95,959.106C2380.28,969.132 2404.57,981.567 2419.8,996.411C2435.03,1011.25 2442.65,1029.74 2442.65,1051.88C2442.65,1076.49 2433.34,1095.79 2414.72,1109.79C2396.1,1123.79 2371.04,1130.79 2339.53,1130.79C2317.65,1130.79 2297.73,1126.78 2279.76,1118.77C2261.79,1110.77 2248.09,1099.8 2238.65,1085.86C2229.21,1071.93 2224.49,1055.79 2224.49,1037.43L2283.28,1037.43C2283.28,1068.81 2302.03,1084.5 2339.53,1084.5C2353.46,1084.5 2364.33,1081.66 2372.14,1076C2379.96,1070.34 2383.86,1062.43 2383.86,1052.27Z" style="fill:rgb(0,171,255);fill-rule:nonzero;"/>
        <path d="M2540.89,1026.68L2540.89,1126.88L2482.3,1126.88L2482.3,842.505L2593.24,842.505C2614.59,842.505 2633.38,846.411 2649.59,854.223C2665.8,862.036 2678.26,873.136 2686.99,887.524C2695.71,901.912 2700.07,918.286 2700.07,936.645C2700.07,964.51 2690.54,986.483 2671.46,1002.56C2652.39,1018.64 2625.99,1026.68 2592.26,1026.68L2540.89,1026.68ZM2540.89,979.223L2593.24,979.223C2608.73,979.223 2620.55,975.578 2628.69,968.286C2636.83,960.994 2640.89,950.578 2640.89,937.036C2640.89,923.104 2636.79,911.841 2628.59,903.247C2620.39,894.653 2609.06,890.226 2594.61,889.966L2540.89,889.966L2540.89,979.223Z" style="fill:rgb(0,171,255);fill-rule:nonzero;"/>
        <path d="M2971.75,1126.88L2913.16,1126.88L2913.16,1005L2798.9,1005L2798.9,1126.88L2740.31,1126.88L2740.31,842.505L2798.9,842.505L2798.9,957.739L2913.16,957.739L2913.16,842.505L2971.75,842.505L2971.75,1126.88Z" style="fill:rgb(0,171,255);fill-rule:nonzero;"/>
        <path d="M3128.2,1022.78L3081.52,1022.78L3081.52,1126.88L3022.93,1126.88L3022.93,842.505L3128.59,842.505C3162.18,842.505 3188.1,849.992 3206.32,864.966C3224.55,879.94 3233.67,901.098 3233.67,928.442C3233.67,947.843 3229.47,964.022 3221.07,976.977C3212.67,989.933 3199.94,1000.25 3182.89,1007.93L3244.41,1124.14L3244.41,1126.88L3181.52,1126.88L3128.2,1022.78ZM3081.52,975.317L3128.78,975.317C3143.5,975.317 3154.89,971.574 3162.96,964.087C3171.04,956.6 3175.07,946.281 3175.07,933.13C3175.07,919.718 3171.26,909.171 3163.65,901.489C3156.03,893.807 3144.35,889.966 3128.59,889.966L3081.52,889.966L3081.52,975.317Z" style="fill:rgb(0,171,255);fill-rule:nonzero;"/>
    </g>
</svg>
